<svg xmlns="http://www.w3.org/2000/svg" width="32" height="32" viewBox="0 0 24 24">
  <!-- AI Detection Icon - Brain with waves representing AI analysis -->
  <g fill="currentColor">
    <!-- Brain outline -->
    <path d="M9 2C6.48 2 4.44 4.04 4.44 6.56c0 .55.11 1.08.32 1.56-.2.23-.32.53-.32.88 0 .66.54 1.2 1.2 1.2.26 0 .51-.08.71-.23.63.88 1.66 1.47 2.82 1.47.94 0 1.79-.38 2.41-1H15c1.66 0 3-1.34 3-3s-1.34-3-3-3c-.36 0-.7.06-1.02.17-.49-1.23-1.66-2.17-3.06-2.17z"/>
    <!-- Sound waves -->
    <path d="M2 12c0-.55-.45-1-1-1s-1 .45-1 1 .45 1 1 1 1-.45 1-1z"/>
    <path d="M5 12c0-1.66-1.34-3-3-3v2c.55 0 1 .45 1 1s-.45 1-1 1v2c1.66 0 3-1.34 3-3z"/>
    <path d="M8 12c0-2.76-2.24-5-5-5v2c1.66 0 3 1.34 3 3s-1.34 3-3 3v2c2.76 0 5-2.24 5-5z"/>
    <!-- Analysis indicators -->
    <circle cx="18" cy="8" r="1"/>
    <circle cx="20" cy="10" r="1"/>
    <circle cx="22" cy="12" r="1"/>
    <circle cx="20" cy="14" r="1"/>
    <circle cx="18" cy="16" r="1"/>
  </g>
</svg>